<?xml version="1.0" standalone="no"?>
<!DOCTYPE svg PUBLIC "-//W3C//DTD SVG 20010904//EN"
 "http://www.w3.org/TR/2001/REC-SVG-20010904/DTD/svg10.dtd">
<svg version="1.0" xmlns="http://www.w3.org/2000/svg"
 width="4050.000000pt" height="4050.000000pt" viewBox="0 0 4050.000000 4050.000000"
 preserveAspectRatio="xMidYMid meet">
<metadata>
Created by potrace 1.11, written by Peter Selinger 2001-2013
</metadata>
<g transform="translate(0.000000,4050.000000) scale(0.100000,-0.100000)"
fill="#000000" stroke="none">
<path d="M15735 34444 c-11 -16 -77 -22 -455 -38 -79 -3 -627 -49 -750 -62
-19 -2 -134 -13 -255 -24 -121 -10 -242 -24 -270 -30 -27 -6 -108 -15 -180
-20 -71 -4 -184 -15 -250 -23 -66 -9 -167 -21 -225 -27 -58 -6 -118 -13 -135
-15 -16 -2 -97 -11 -180 -19 -82 -9 -188 -21 -235 -27 -47 -6 -143 -17 -215
-24 -71 -7 -191 -20 -265 -29 -346 -41 -415 -48 -565 -61 -88 -8 -198 -19
-245 -25 -47 -6 -128 -13 -180 -16 -52 -3 -131 -9 -175 -14 -214 -22 -650 -62
-885 -81 -63 -5 -194 -16 -290 -25 -96 -8 -222 -17 -280 -20 -58 -2 -159 -9
-225 -15 -186 -17 -334 -28 -1085 -80 -74 -5 -196 -11 -270 -13 -74 -2 -216
-9 -315 -15 -152 -10 -685 -32 -1165 -48 -589 -19 -1005 -34 -1220 -44 -140
-6 -412 -14 -605 -19 -401 -8 -534 -13 -910 -29 -233 -10 -852 -27 -1600 -45
-115 -3 -443 -8 -727 -13 -500 -8 -517 -9 -544 -29 -53 -39 -67 -67 -55 -109
5 -21 20 -48 31 -61 42 -44 26 -57 -95 -76 -202 -33 -316 -60 -379 -93 -27
-14 -55 -25 -63 -25 -9 0 -13 -16 -13 -54 0 -49 2 -54 28 -64 91 -34 138 -44
227 -49 113 -6 125 -13 125 -75 0 -48 35 -104 75 -119 65 -23 157 -34 306 -34
173 -1 180 -3 200 -63 17 -54 54 -113 91 -148 78 -73 152 -82 811 -99 212 -6
247 -9 247 -22 0 -8 -12 -26 -27 -39 -223 -188 -283 -254 -283 -312 0 -48 9
-60 51 -72 121 -36 175 -40 516 -40 307 0 343 -2 358 -17 15 -15 16 -29 9
-107 -10 -111 -8 -174 6 -191 6 -7 34 -16 63 -20 72 -10 419 -26 670 -31 l207
-5 25 -39 c40 -63 84 -90 167 -102 44 -6 273 -8 580 -6 552 3 533 5 503 -52
-36 -70 -1 -121 97 -140 35 -7 88 -14 118 -16 30 -1 82 -5 115 -9 33 -4 183
-10 334 -13 284 -7 317 -13 253 -46 -16 -8 -62 -46 -103 -85 -64 -60 -72 -72
-63 -88 11 -17 30 -18 325 -16 173 2 411 7 529 13 227 10 237 8 225 -35 -4
-11 -9 -47 -12 -81 -6 -61 -5 -61 31 -89 l37 -28 582 -5 c384 -3 586 -8 595
-15 9 -7 11 -22 7 -48 -4 -21 -4 -47 0 -57 10 -34 90 -59 225 -71 158 -15 159
-16 140 -113 -35 -184 -22 -263 51 -313 l44 -30 165 0 165 0 1 -85 c0 -71 4
-93 26 -135 26 -51 84 -99 136 -112 15 -3 45 -14 67 -24 24 -11 64 -19 101
-19 69 0 84 -10 84 -57 0 -18 14 -61 31 -95 55 -111 153 -157 359 -167 63 -3
121 -10 128 -14 6 -5 20 -23 29 -40 56 -110 165 -215 246 -237 96 -27 120 -44
182 -132 55 -78 76 -99 141 -135 24 -14 61 -56 143 -162 60 -76 66 -79 276
-147 97 -31 121 -49 130 -91 11 -49 68 -162 94 -186 38 -35 117 -64 191 -72
36 -4 75 -14 88 -21 12 -8 43 -56 68 -107 57 -114 91 -163 142 -204 39 -32
151 -83 181 -83 34 0 59 -30 70 -82 15 -69 63 -167 98 -200 28 -27 102 -75
193 -126 59 -33 110 -81 110 -104 0 -52 67 -151 128 -190 59 -38 144 -90 210
-128 77 -45 113 -73 152 -122 102 -125 184 -194 387 -325 80 -51 110 -79 129
-118 16 -34 30 -57 59 -100 11 -17 25 -37 30 -46 65 -104 150 -203 267 -309
62 -57 150 -137 196 -179 45 -41 85 -86 88 -98 9 -33 96 -201 131 -251 44 -63
113 -151 173 -222 78 -90 106 -131 114 -162 17 -70 171 -234 302 -321 38 -26
78 -53 89 -61 11 -7 52 -35 92 -60 39 -26 73 -53 76 -60 3 -8 -5 -33 -17 -57
-13 -24 -29 -62 -36 -84 -7 -22 -17 -46 -23 -53 -6 -7 -12 -49 -15 -93 -5 -84
24 -239 70 -374 28 -82 29 -175 1 -245 -11 -30 -33 -95 -48 -145 -15 -49 -35
-112 -45 -140 -40 -116 -64 -214 -68 -276 -3 -57 0 -74 23 -116 14 -28 43 -64
65 -82 45 -36 156 -91 183 -91 60 0 73 -46 30 -104 -144 -196 -378 -426 -558
-552 -101 -70 -252 -171 -265 -177 -8 -4 -35 -20 -60 -37 -25 -16 -79 -48
-120 -71 -41 -23 -82 -48 -90 -54 -8 -7 -26 -16 -40 -20 -14 -4 -32 -13 -40
-20 -17 -14 -105 -59 -195 -100 -33 -15 -67 -31 -75 -36 -8 -5 -22 -12 -30
-15 -23 -10 -149 -62 -200 -83 -25 -11 -73 -31 -106 -45 -34 -14 -67 -26 -75
-26 -7 0 -31 -8 -53 -19 -45 -20 -107 -42 -201 -70 -33 -10 -77 -26 -97 -35
-21 -9 -45 -16 -55 -16 -10 0 -30 -6 -45 -14 -15 -8 -42 -17 -60 -21 -18 -4
-67 -17 -108 -30 -41 -13 -115 -36 -165 -50 -49 -14 -118 -35 -152 -45 -34
-11 -70 -20 -80 -20 -10 0 -58 -11 -108 -26 -173 -49 -230 -64 -300 -79 -89
-19 -141 -31 -235 -57 -41 -11 -100 -25 -130 -30 -30 -4 -75 -15 -100 -23 -25
-7 -94 -25 -155 -39 -60 -13 -141 -32 -180 -41 -38 -10 -92 -22 -120 -27 -27
-5 -79 -18 -115 -28 -36 -10 -85 -21 -110 -25 -25 -4 -67 -13 -95 -21 -27 -7
-75 -18 -105 -24 -30 -5 -89 -18 -130 -29 -101 -26 -211 -51 -290 -67 -36 -7
-92 -19 -125 -28 -33 -8 -82 -19 -110 -25 -27 -5 -102 -22 -165 -36 -63 -14
-153 -34 -200 -45 -47 -10 -114 -25 -150 -34 -36 -8 -121 -27 -190 -42 -69
-14 -163 -34 -210 -45 -47 -10 -139 -30 -205 -45 -66 -14 -158 -34 -205 -45
-47 -10 -116 -25 -155 -33 -118 -25 -176 -37 -290 -61 -410 -87 -547 -115
-730 -150 -44 -9 -109 -23 -145 -32 -36 -8 -84 -19 -108 -24 -49 -10 -203 -84
-259 -125 -70 -51 -168 -160 -202 -225 -31 -58 -34 -72 -35 -151 l-1 -87 43
-44 42 -43 -6 -70 c-14 -147 46 -245 205 -339 24 -14 56 -28 70 -32 52 -13
110 -44 113 -61 2 -9 -4 -46 -14 -82 -12 -42 -18 -100 -18 -167 0 -101 0 -102
35 -145 59 -73 62 -82 31 -118 -14 -17 -26 -36 -26 -41 0 -6 -9 -31 -21 -56
-28 -61 -33 -101 -20 -150 14 -51 82 -116 155 -148 56 -25 66 -38 66 -85 0
-29 61 -120 96 -144 34 -23 108 -36 145 -26 53 16 97 12 108 -8 5 -9 12 -39
16 -67 12 -85 79 -177 141 -194 44 -11 43 -44 -5 -112 -23 -32 -41 -61 -41
-64 0 -4 -9 -18 -20 -32 -24 -30 -26 -89 -6 -119 26 -36 96 -78 149 -87 29 -5
104 -11 167 -14 l115 -4 50 -49 c28 -26 61 -53 74 -60 29 -15 124 -6 230 21
104 27 155 25 174 -5 9 -13 30 -26 49 -30 18 -4 157 -1 309 5 l277 13 32 -27
c17 -15 43 -30 57 -33 45 -12 297 4 428 26 139 24 162 20 150 -27 -4 -18 2
-31 25 -55 25 -25 36 -29 63 -25 18 4 91 13 162 22 72 9 173 23 225 32 180 30
186 30 226 -11 35 -36 89 -54 121 -41 10 4 104 18 208 31 105 12 235 30 290
38 62 10 170 16 282 16 158 0 189 3 233 20 28 11 58 20 68 20 9 0 40 11 67 25
28 13 56 25 63 25 7 0 30 9 50 20 20 11 71 34 112 51 41 17 82 37 90 44 8 7
32 18 52 24 20 7 41 18 48 26 6 7 23 16 37 20 15 3 39 15 54 26 15 10 33 19
41 19 8 0 23 7 34 15 10 8 37 24 59 35 22 11 81 42 130 69 50 27 101 55 115
61 14 7 32 16 40 21 8 4 73 41 144 81 72 40 147 82 168 93 34 18 233 132 313
180 18 11 58 35 89 52 l55 33 293 15 c161 8 351 15 423 15 171 0 206 11 354
109 29 20 66 45 81 56 15 11 40 29 56 40 16 10 50 36 75 57 26 21 51 38 56 38
5 0 38 22 74 50 35 27 67 50 70 50 4 0 37 18 73 40 108 66 130 70 296 60 273
-18 1284 -23 1945 -10 610 12 749 16 1140 39 94 5 231 10 305 11 74 1 162 5
195 10 33 5 157 16 275 25 118 9 247 23 285 30 39 8 99 17 135 20 61 6 248 37
425 71 44 8 109 20 145 25 36 5 108 18 160 30 52 11 136 29 185 39 253 54 339
73 430 96 56 13 109 24 120 24 10 0 48 9 84 19 83 25 229 60 300 72 29 5 61
14 70 18 9 5 51 16 93 25 42 9 89 21 104 26 16 6 61 17 101 25 40 8 82 19 93
25 12 6 42 15 68 19 50 9 170 41 267 72 33 11 67 19 75 19 8 0 53 11 100 25
174 52 359 104 410 115 19 5 62 17 95 28 33 11 92 29 130 40 139 41 241 72
290 87 65 20 208 64 265 80 25 8 68 21 95 30 121 41 143 48 185 61 78 23 294
96 328 110 35 15 41 13 181 -68 25 -15 57 -32 71 -37 14 -6 36 -17 50 -25 43
-24 182 -68 234 -75 46 -5 53 -10 80 -51 58 -88 158 -174 259 -223 82 -40 106
-47 178 -52 141 -10 129 1 127 -123 -1 -89 2 -115 19 -152 31 -67 43 -79 108
-106 71 -29 185 -43 413 -53 183 -7 185 -8 197 -82 11 -63 73 -177 123 -225
25 -24 49 -44 54 -44 5 0 20 -8 35 -17 30 -20 122 -60 172 -75 19 -5 51 -19
70 -29 20 -10 45 -19 56 -19 11 0 36 -8 55 -19 19 -10 52 -21 73 -25 75 -14
85 -24 143 -143 31 -62 65 -124 76 -139 23 -28 120 -77 184 -92 21 -6 59 -17
84 -25 72 -25 365 -91 480 -109 182 -27 209 -42 270 -153 84 -155 183 -259
301 -318 77 -38 97 -46 269 -104 58 -20 128 -44 155 -53 72 -25 205 -67 237
-74 21 -5 35 -22 61 -74 111 -215 232 -358 329 -387 12 -4 37 -16 54 -26 17
-11 39 -19 47 -19 9 0 45 -11 79 -24 35 -13 110 -36 168 -51 58 -15 111 -30
119 -34 15 -7 61 -131 61 -162 0 -41 89 -287 138 -379 47 -90 56 -103 85 -142
44 -58 91 -80 192 -94 132 -18 216 -35 246 -50 25 -13 27 -19 34 -111 18 -249
77 -420 195 -564 96 -119 234 -246 340 -313 25 -16 56 -37 70 -46 80 -54 119
-64 269 -66 104 -3 147 -7 153 -16 4 -7 8 -58 8 -113 0 -98 1 -101 45 -189 25
-50 52 -98 61 -107 8 -9 32 -42 52 -72 20 -30 64 -90 97 -134 182 -238 317
-373 373 -373 27 0 113 31 142 50 14 10 51 34 82 54 31 20 60 41 63 46 3 6 15
10 25 10 24 0 28 -17 35 -138 2 -51 6 -96 9 -100 2 -4 11 -42 20 -84 11 -52
28 -96 51 -133 49 -75 245 -285 463 -494 100 -96 182 -179 182 -185 0 -6 -20
-30 -45 -54 -26 -25 -49 -58 -56 -82 -16 -51 -1 -73 94 -144 113 -84 306 -291
341 -366 31 -65 67 -120 117 -174 85 -93 197 -135 414 -155 39 -3 76 -10 82
-14 7 -5 34 -49 59 -100 131 -262 266 -457 366 -529 48 -36 169 -68 253 -68
52 0 69 -4 85 -20 11 -11 20 -26 20 -32 0 -7 25 -41 55 -75 61 -68 105 -87
227 -99 83 -8 104 -23 123 -87 9 -28 31 -80 48 -114 18 -34 49 -95 69 -136 48
-93 158 -230 225 -281 29 -21 83 -50 120 -64 62 -23 83 -25 226 -26 156 -1
158 -1 177 -26 11 -14 22 -40 26 -58 3 -18 10 -35 15 -38 5 -3 20 -26 34 -52
44 -83 69 -104 148 -122 31 -7 55 -7 73 0 46 18 51 4 59 -168 6 -152 27 -295
46 -318 17 -20 144 -53 269 -69 182 -24 200 -31 200 -86 0 -39 41 -115 78
-144 35 -28 43 -30 142 -33 l105 -4 61 -57 c74 -70 139 -114 188 -131 21 -7
40 -18 43 -26 8 -21 258 -20 267 1 3 8 25 19 49 26 24 6 66 28 93 50 85 67 84
67 188 32 130 -44 248 -59 343 -43 64 11 83 20 128 56 69 57 164 199 242 364
29 62 215 433 245 490 72 135 146 353 183 535 8 39 19 85 24 104 6 19 18 88
26 155 9 67 20 135 25 151 5 17 14 93 20 170 13 169 16 185 35 185 10 0 15 10
15 30 0 20 -5 30 -15 30 -8 0 -15 9 -15 20 0 11 7 20 15 20 13 0 15 71 15 580
0 509 -2 580 -15 580 -8 0 -15 7 -15 15 0 8 7 15 15 15 12 0 15 13 15 55 0 42
-4 55 -15 55 -20 0 -22 15 -35 270 -6 124 -15 263 -20 310 -5 47 -16 166 -25
265 -8 99 -20 218 -26 265 -13 97 -15 124 -24 235 -3 44 -10 96 -15 115 -5 19
-14 69 -20 110 -17 119 -60 357 -80 450 -11 47 -31 139 -45 205 -15 66 -35
154 -46 195 -11 41 -24 100 -29 130 -5 30 -16 73 -24 95 -8 22 -15 49 -16 60
0 11 -11 58 -24 105 -33 120 -63 261 -76 360 -7 47 -16 110 -21 140 -6 30 -16
107 -24 170 -22 187 -44 349 -61 450 -9 52 -22 140 -29 195 -20 152 -54 351
-76 440 -10 45 -19 88 -19 96 0 9 -9 45 -20 80 -12 35 -32 101 -45 147 -14 45
-36 119 -50 165 -14 45 -25 88 -25 95 0 8 -8 44 -19 80 -10 37 -31 114 -46
172 -15 58 -36 134 -48 170 -11 36 -24 81 -27 100 -4 19 -16 58 -25 85 -10 28
-26 73 -35 100 -36 104 -74 202 -98 255 -71 158 -170 347 -259 498 -31 53 -66
112 -78 131 -13 21 -143 219 -161 246 -8 11 -34 49 -59 85 -24 36 -67 97 -94
135 -27 39 -85 126 -128 195 -106 169 -101 161 -120 200 -10 19 -22 42 -29 50
-6 8 -29 49 -51 90 -22 41 -51 95 -65 120 -13 25 -42 77 -63 115 -21 39 -57
104 -81 146 -24 42 -44 80 -44 86 0 5 -9 18 -20 28 -11 10 -20 23 -20 29 0 11
-4 18 -52 106 -13 25 -30 56 -38 70 -7 14 -17 32 -22 40 -5 8 -15 31 -23 50
-9 19 -20 42 -25 50 -13 21 -33 57 -137 260 -143 276 -247 472 -313 585 -13
22 -32 57 -44 78 -87 155 -171 274 -288 408 -135 153 -371 352 -549 464 -9 5
-41 26 -70 45 -51 34 -65 41 -134 76 -16 8 -37 19 -45 24 -61 37 -270 130
-292 130 -7 0 -22 6 -33 14 -11 7 -44 21 -74 31 -29 9 -65 24 -80 31 -14 8
-32 14 -39 14 -7 0 -30 9 -52 20 -22 11 -47 20 -57 20 -10 0 -40 11 -68 25
-27 13 -59 25 -69 25 -11 0 -38 9 -60 19 -23 11 -57 24 -76 30 -55 16 -152 51
-185 66 -17 8 -49 18 -70 24 -49 11 -156 48 -210 71 -22 10 -54 20 -72 24 -17
4 -48 16 -69 27 -21 10 -47 19 -59 19 -11 0 -39 9 -63 20 -23 10 -59 22 -80
26 -20 4 -53 14 -72 24 -19 10 -51 20 -71 24 -19 3 -53 15 -74 26 -22 11 -48
20 -59 20 -19 0 -117 30 -231 70 -27 10 -90 30 -140 44 -49 15 -103 32 -120
37 -16 6 -52 17 -80 24 -27 6 -77 21 -110 32 -33 12 -127 42 -210 69 -82 26
-202 65 -265 87 -63 21 -135 45 -160 52 -25 7 -67 21 -95 30 -76 26 -184 65
-240 85 -27 10 -93 32 -145 48 -52 17 -96 36 -98 44 -1 7 29 30 69 53 112 63
151 85 194 111 22 13 58 33 80 45 40 21 65 35 172 99 32 19 70 42 84 50 25 14
64 37 140 83 20 12 105 68 188 125 84 56 156 102 160 102 5 0 20 9 34 20 14
12 41 26 59 32 18 6 40 16 48 23 8 6 49 26 90 44 41 18 84 37 94 43 11 5 44
19 74 29 30 10 60 23 66 28 7 6 30 14 51 20 22 5 92 27 155 49 331 115 659
186 1025 222 260 25 715 20 848 -10 23 -5 67 -14 97 -19 120 -21 273 -59 330
-81 25 -10 63 -21 85 -24 22 -4 63 -15 90 -25 63 -23 180 -59 220 -67 17 -3
57 -14 90 -24 33 -9 112 -23 175 -30 63 -6 128 -16 144 -21 16 -5 138 -9 272
-9 l243 0 72 -62 c91 -80 135 -111 194 -137 63 -28 84 -27 125 8 l35 29 -1
168 c-1 146 -4 177 -23 228 -11 33 -21 66 -21 75 0 9 -9 34 -20 56 -11 22 -20
44 -20 50 0 6 -18 45 -39 88 -91 177 -196 310 -346 437 -45 38 -85 70 -88 70
-2 0 -31 18 -63 39 -77 52 -342 183 -424 210 -36 13 -92 28 -125 36 -33 7 -73
18 -89 24 -15 6 -60 16 -100 22 -39 5 -93 16 -121 24 -27 7 -81 18 -120 24
-38 6 -90 15 -115 21 -25 5 -76 14 -115 20 -97 14 -257 48 -335 70 -36 10 -85
22 -110 25 -25 4 -64 16 -87 26 -23 11 -50 19 -60 19 -10 0 -34 8 -53 19 -19
10 -46 22 -60 26 -14 4 -69 33 -123 64 -53 31 -110 63 -125 71 -16 9 -41 26
-57 38 -15 12 -32 22 -37 22 -11 0 -108 70 -242 174 -55 44 -223 202 -373 352
-150 150 -290 285 -312 301 -22 15 -91 71 -153 123 -62 53 -126 105 -142 115
-16 11 -41 29 -56 40 -36 26 -153 105 -208 139 -192 120 -503 260 -712 321
-25 7 -61 19 -80 27 -19 8 -53 18 -75 22 -22 4 -69 16 -105 26 -151 44 -258
64 -547 105 -181 26 -522 34 -868 21 -158 -6 -206 -11 -420 -40 -60 -8 -144
-19 -185 -25 -134 -17 -283 -42 -371 -62 -47 -10 -96 -19 -108 -19 -23 0 -200
-37 -341 -71 -47 -11 -110 -24 -140 -28 -30 -5 -82 -15 -115 -24 -97 -24 -320
-70 -495 -102 -197 -36 -276 -48 -410 -62 -80 -8 -158 -17 -175 -19 -300 -40
-1274 -42 -1635 -4 -47 5 -173 16 -280 25 -107 8 -229 20 -270 25 -41 6 -133
15 -205 20 -71 6 -166 17 -210 25 -44 8 -129 19 -190 25 -60 6 -117 13 -125
15 -33 10 -187 35 -217 35 -18 0 -56 8 -85 19 -29 10 -74 24 -101 31 -26 7
-50 17 -53 21 -3 5 -12 9 -21 9 -26 0 -326 144 -363 174 -8 7 -37 25 -65 41
-43 24 -79 47 -179 115 -55 37 -219 165 -297 232 -117 98 -287 246 -324 281
-16 15 -63 53 -104 85 -73 57 -350 290 -426 358 -101 91 -272 253 -305 288
-19 21 -75 80 -125 131 -120 124 -210 220 -266 286 -26 30 -80 92 -120 139
-148 171 -406 495 -507 638 -74 105 -316 473 -354 539 -12 21 -32 56 -44 78
-23 39 -56 100 -98 179 -48 88 -226 445 -251 501 -15 33 -37 83 -50 110 -12
28 -32 71 -44 96 -12 25 -21 51 -21 58 0 7 -8 30 -19 50 -18 35 -51 122 -85
226 -91 274 -120 395 -121 510 -1 44 -5 95 -9 114 -32 138 -249 349 -489 475
-37 20 -75 40 -85 46 -9 5 -51 23 -92 40 -180 74 -215 87 -275 102 -22 6 -58
17 -80 24 -43 15 -253 60 -350 75 -33 6 -91 17 -130 25 -64 13 -249 41 -430
65 -38 5 -117 16 -175 24 -58 9 -161 22 -230 30 -69 8 -181 21 -250 29 -268
33 -414 48 -650 66 -135 11 -274 24 -310 29 -36 5 -110 9 -165 10 -55 1 -174
6 -264 10 -136 6 -166 10 -176 24 -11 15 -49 17 -401 17 -348 0 -390 -2 -399
-16z"/>
</g>
</svg>
